<svg width="20" height="20" viewBox="0 0 20 20" fill="none" xmlns="http://www.w3.org/2000/svg">
<g clip-path="url(#clip0_852_67)">
<path d="M4.33765 3.19081C3.1889 4.84159 3.33187 6.98956 4.20952 8.74393L4.27374 8.86862L4.31483 8.94769L4.34046 8.99315L4.38624 9.07503C4.41343 9.123 4.4414 9.17065 4.46999 9.21862L4.5178 9.29737C4.54952 9.34831 4.58187 9.39894 4.61499 9.4494L4.6564 9.51331C4.70218 9.58159 4.7489 9.64956 4.79718 9.71659L4.80124 9.72175L4.82499 9.75378C4.86671 9.81128 4.90968 9.86815 4.95327 9.92456L5.00155 9.98597C5.04046 10.0349 5.07999 10.0833 5.12015 10.1319L5.16546 10.186C5.21937 10.2494 5.27452 10.3128 5.33062 10.3747L5.3339 10.3782L5.3403 10.3852C5.39515 10.445 5.45124 10.5036 5.50827 10.5622L5.56202 10.6164C5.60608 10.6608 5.65093 10.7044 5.69608 10.7478L5.75093 10.8C5.8114 10.8569 5.87233 10.9128 5.93468 10.9672L5.93749 10.9697L5.96952 10.9969C6.02437 11.0446 6.08015 11.0914 6.1364 11.1378L6.20546 11.193C6.2514 11.2297 6.2978 11.2661 6.34452 11.3017L6.41905 11.3582C6.47062 11.3961 6.52265 11.4335 6.57515 11.4702L6.63187 11.5105L6.64765 11.5217C6.69733 11.5561 6.74843 11.5891 6.79921 11.6221L6.86483 11.6658C6.94296 11.715 7.02218 11.7639 7.10218 11.8111L7.1678 11.8482C7.22671 11.8821 7.28593 11.9155 7.34593 11.948L7.44452 11.9989L7.57202 12.0652L7.6014 12.0794L7.65358 12.1046C7.7203 12.1364 7.78765 12.1678 7.85562 12.1982L7.89827 12.2172C7.97608 12.2513 8.05468 12.2839 8.1339 12.3153L8.1914 12.3378C8.26468 12.3663 8.33905 12.3939 8.41374 12.4202L8.44171 12.4299C8.52358 12.4586 8.6064 12.485 8.68968 12.5111L8.74952 12.5289C8.83421 12.5546 8.91812 12.5849 9.00546 12.6011C14.5606 13.6141 16.1742 9.263 16.1742 9.263C14.8189 11.0286 12.4134 11.4942 10.1342 10.9758C10.0478 10.9563 9.96405 10.9292 9.87983 10.9046L9.8164 10.8852C9.73425 10.8601 9.65257 10.8336 9.5714 10.8055L9.5378 10.7935C9.46543 10.7678 9.39344 10.7411 9.32187 10.7133L9.26124 10.6896C9.18296 10.6586 9.10499 10.6263 9.02812 10.5927L8.98155 10.5719C8.9156 10.5423 8.85002 10.5118 8.78483 10.4805L8.72796 10.4532C8.67687 10.4283 8.6264 10.4019 8.57577 10.3758L8.47437 10.3225C8.41265 10.2897 8.35218 10.2553 8.29202 10.2203L8.23046 10.1861C8.15055 10.1388 8.07138 10.0903 7.99296 10.0405L7.9289 9.99784C7.872 9.9613 7.81569 9.92385 7.75999 9.8855L7.70546 9.84722C7.65178 9.8094 7.59855 9.77096 7.54577 9.7319L7.47499 9.67831C7.42655 9.64128 7.37843 9.60394 7.33093 9.56565L7.26671 9.51409C7.20608 9.4644 7.14624 9.41409 7.08718 9.36269L7.06749 9.34628C7.00373 9.29003 6.9408 9.23284 6.87874 9.17472L6.82562 9.12347C6.7796 9.07998 6.73438 9.03565 6.68999 8.9905L6.63687 8.93737C6.5803 8.87956 6.52483 8.82097 6.47046 8.76144L6.46218 8.75253C6.40469 8.68962 6.34843 8.6256 6.29343 8.5605L6.24921 8.508C6.20805 8.45851 6.16758 8.40845 6.1278 8.35784L6.08327 8.30237C6.03562 8.2408 5.98884 8.17856 5.94296 8.11565C4.67765 6.38956 4.22296 4.00893 5.23437 2.05393M7.90327 1.79987C7.07265 2.99518 7.11765 4.59565 7.76577 5.85972C7.87421 6.07222 7.99694 6.27712 8.13312 6.473C8.25749 6.65159 8.39562 6.86378 8.56077 7.00706C8.62062 7.073 8.68327 7.13737 8.74718 7.2005L8.79624 7.24909C8.85827 7.30925 8.9214 7.36847 8.98655 7.42597L8.99437 7.43269L8.99624 7.43456C9.06843 7.49784 9.14296 7.55862 9.21858 7.61862L9.26905 7.658C9.34499 7.71612 9.42233 7.77331 9.50171 7.82784L9.50843 7.833L9.61468 7.90284L9.66499 7.93612C9.72171 7.97253 9.77905 8.00784 9.83749 8.04175L9.86187 8.05612C9.91218 8.08503 9.96312 8.11347 10.0142 8.14128L10.0684 8.1694L10.175 8.22472L10.1911 8.23206C10.2644 8.268 10.3381 8.30284 10.4136 8.33565L10.4626 8.35597C10.523 8.38144 10.5837 8.40644 10.645 8.42987L10.7231 8.45862C10.7787 8.47925 10.8344 8.49815 10.8906 8.5169L10.9662 8.54112C11.0461 8.56581 11.1251 8.59722 11.2083 8.61112C15.4973 9.32159 16.4875 6.01925 16.4875 6.01925C15.595 7.30487 13.8664 7.91815 12.0219 7.4394C11.9403 7.41791 11.8593 7.39452 11.7789 7.36925L11.7059 7.34565C11.6489 7.3273 11.5923 7.30782 11.5361 7.28722L11.4594 7.25862C11.398 7.23498 11.337 7.21035 11.2764 7.18472L11.2272 7.16394C11.1518 7.13105 11.0772 7.09635 11.0034 7.05987L10.8912 7.00284L10.8266 6.96956C10.7787 6.94362 10.7312 6.91675 10.6845 6.88925L10.6506 6.87003C10.5926 6.83623 10.5353 6.80123 10.4787 6.76503L10.4269 6.7305L10.3156 6.65675C10.2369 6.60215 10.1596 6.54562 10.0837 6.48722L10.0316 6.44597C9.22421 5.80862 8.58421 4.93737 8.27999 3.94956C7.96108 2.92503 8.02983 1.77503 8.58233 0.841591M10.9022 0.760653C10.4125 1.48128 10.3644 2.37643 10.7042 3.17237C11.0625 4.01722 11.7967 4.67987 12.6537 4.99425L12.7603 5.03097L12.8072 5.04597C12.8576 5.0619 12.9078 5.08034 12.96 5.09003C15.3283 5.54768 15.9706 3.87487 16.1416 3.62847C15.5789 4.43862 14.6333 4.63315 13.473 4.35143C13.378 4.32722 13.2844 4.29827 13.1923 4.26472C13.0789 4.22436 12.9676 4.17815 12.8589 4.12628C12.6528 4.027 12.457 3.90756 12.2744 3.76972C11.2361 2.9819 10.5912 1.47925 11.2687 0.255341" fill="#CCCCCC"/>
<path d="M10.3688 15.0461H9.70851C9.68983 15.0468 9.67188 15.0536 9.65732 15.0653C9.64277 15.0771 9.63239 15.0932 9.62773 15.1113L9.39336 16.1957L9.15898 17.28C9.15438 17.2981 9.14403 17.3143 9.1295 17.326C9.11497 17.3378 9.09703 17.3445 9.07836 17.3452H8.61101C8.14867 17.3452 8.20211 17.0253 8.2968 16.5872L8.29961 16.5739L8.30992 16.5186L8.3118 16.5083L8.33289 16.3958L8.35555 16.2753L8.37961 16.1527L8.48617 15.6321L8.59289 15.1114C8.59493 15.1035 8.59507 15.0952 8.59331 15.0872C8.59155 15.0791 8.58793 15.0716 8.58275 15.0653C8.57757 15.0589 8.57097 15.0538 8.56347 15.0505C8.55598 15.0471 8.54781 15.0456 8.53961 15.046H7.86195C7.84329 15.0466 7.82535 15.0534 7.81086 15.0652C7.79637 15.077 7.78611 15.0931 7.78164 15.1113L7.63586 15.8025L7.49023 16.4939L7.48992 16.4949L7.47648 16.5592C7.30867 17.3253 7.35305 18.0561 8.26523 18.0791L8.2918 18.0796H9.72351C9.74218 18.0789 9.76013 18.0721 9.77466 18.0604C9.78919 18.0486 9.79953 18.0325 9.80414 18.0144L10.1129 16.563L10.4216 15.1114C10.4293 15.0755 10.4055 15.0463 10.3688 15.0461ZM3.29758 15.0385H2.57258C2.55385 15.0392 2.53584 15.0459 2.52119 15.0576C2.50655 15.0693 2.49603 15.0854 2.49117 15.1035L2.42242 15.4069L2.35367 15.7103C2.3457 15.7461 2.36898 15.7753 2.4057 15.7753H3.13633C3.15504 15.7747 3.17302 15.7679 3.18761 15.7562C3.20219 15.7445 3.2126 15.7283 3.21726 15.7102L3.28367 15.4069L3.35008 15.1036C3.35773 15.0678 3.3343 15.0385 3.29758 15.0385ZM3.08726 15.9828H2.35648C2.33776 15.9836 2.31977 15.9903 2.30512 16.002C2.29048 16.0137 2.27995 16.0298 2.27508 16.0478L2.17242 16.5025L2.06992 16.9571L2.04133 17.0874L1.94273 17.5514L1.8443 18.0157C1.83664 18.0514 1.82086 18.1093 1.80914 18.1439C1.80914 18.1439 1.67258 18.5502 1.44305 18.5455L1.4143 18.5449L1.2157 18.5413C1.19705 18.5417 1.17887 18.5481 1.16413 18.5596C1.14939 18.571 1.13871 18.5869 1.13367 18.6049L1.05789 18.9235L0.982264 19.2419C0.97367 19.2775 0.996795 19.3069 1.0332 19.3075C1.16336 19.3091 1.45492 19.3124 1.63133 19.3124C2.20461 19.3124 2.50695 18.9947 2.70054 18.0807L2.92726 17.0316L3.13992 16.0477C3.14758 16.0122 3.12383 15.9828 3.08726 15.9828ZM16.543 15.7369L16.5127 15.6117L16.4829 15.4836L16.4677 15.4189C16.4084 15.1882 16.2341 15.0552 15.8557 15.0552L15.2666 15.0546L14.7241 15.0538H14.1137C14.095 15.0545 14.0771 15.0612 14.0626 15.0729C14.0481 15.0847 14.0378 15.1008 14.0332 15.1189L14.0062 15.2464L13.9743 15.3971L13.9654 15.4394L13.6905 16.7269L13.4296 17.9491C13.4218 17.985 13.4193 18.0291 13.4237 18.0469C13.428 18.0649 13.4985 18.0796 13.5351 18.0796H14.0857C14.1224 18.0796 14.1688 18.073 14.1888 18.0649C14.2088 18.0567 14.2384 17.9847 14.2457 17.9489L14.3435 17.4647L14.4415 16.9803L14.4416 16.9796L14.4548 16.915L14.5735 16.3588L14.6784 15.8675C14.683 15.8495 14.6933 15.8334 14.7078 15.8216C14.7223 15.8099 14.7402 15.8031 14.7588 15.8024L16.4915 15.8016C16.5282 15.8019 16.5513 15.7727 16.543 15.7369ZM18.7735 14.6057L18.6401 14.6061H18.0855C18.0652 14.6073 18.0454 14.6128 18.0274 14.6223C18.0094 14.6318 17.9937 14.6451 17.9813 14.6613L16.7549 16.4578C16.7343 16.4882 16.7107 16.4838 16.7026 16.4482L16.6123 16.0524C16.6074 16.0342 16.5969 16.0182 16.5822 16.0065C16.5675 15.9948 16.5495 15.9881 16.5307 15.9874H15.7424C15.7057 15.9874 15.684 16.0161 15.694 16.0513L16.0473 17.2889C16.0573 17.3242 16.058 17.3821 16.049 17.4177L15.8951 18.0166C15.8859 18.0522 15.9084 18.0811 15.9451 18.0811H16.7243C16.7431 18.0804 16.7613 18.0737 16.7762 18.0622C16.7911 18.0506 16.802 18.0347 16.8074 18.0166L16.9615 17.4177C16.9737 17.3755 16.9928 17.3356 17.0182 17.2997L19.0091 14.6574C19.0313 14.628 19.0193 14.6041 18.9827 14.6044L18.7735 14.6057ZM12.5101 16.1555V16.1549C12.5074 16.1737 12.498 16.191 12.4838 16.2037C12.4695 16.2163 12.4512 16.2234 12.4321 16.2238H11.4326C11.3979 16.2238 11.3804 16.2003 11.3855 16.1713L11.3865 16.1689L11.3859 16.1693L11.3863 16.166L11.3909 16.1489C11.4863 15.8952 11.6807 15.7286 12.0462 15.7286C12.4577 15.7285 12.538 15.9294 12.5101 16.1555ZM12.2168 15.0017C10.9338 15.0017 10.6298 15.7805 10.4591 16.5666C10.2887 17.3678 10.3032 18.1167 11.631 18.1167H11.792L11.832 18.1166H11.8413L12.0007 18.1161H12.0035C12.3541 18.1147 12.7059 18.1121 12.8482 18.111C12.8667 18.11 12.8845 18.1031 12.8988 18.0913C12.9132 18.0795 12.9233 18.0634 12.9277 18.0453L12.9815 17.7827L12.992 17.7316L13.056 17.4182C13.0581 17.4102 13.0582 17.4019 13.0564 17.3939C13.0547 17.3859 13.0511 17.3784 13.0459 17.372C13.0407 17.3657 13.0341 17.3606 13.0266 17.3573C13.0191 17.354 13.0109 17.3524 13.0027 17.3528H11.8091C11.3343 17.3528 11.1934 17.2267 11.2454 16.8558H13.1534L13.1532 16.856L13.1545 16.8558C13.1695 16.8552 13.1841 16.8502 13.1965 16.8414C13.2088 16.8327 13.2184 16.8206 13.224 16.8066L13.2285 16.79L13.2284 16.7902C13.5116 15.7216 13.4304 15.0019 12.2168 15.0017ZM6.15273 16.1514L6.13461 16.2153L5.99055 16.7261L5.84648 17.2366C5.84059 17.2547 5.8293 17.2705 5.81414 17.282C5.79897 17.2935 5.78065 17.3001 5.76164 17.3008H4.99914C4.4207 17.3008 4.27976 16.8483 4.4207 16.1811C4.56148 15.4986 4.83758 15.0744 5.40695 15.0314C6.18508 14.9727 6.3407 15.5199 6.15273 16.1514ZM6.67586 17.2616C6.67586 17.2616 7.03539 16.3885 7.11695 15.8844C7.22836 15.2096 6.89039 14.2305 5.58508 14.2305C4.28726 14.2305 3.72351 15.165 3.50851 16.1811C3.29351 17.2046 3.57523 18.1019 4.8657 18.0946L5.88383 18.0908L6.83523 18.0874C6.85409 18.0864 6.87221 18.0797 6.88713 18.0682C6.90205 18.0566 6.91306 18.0407 6.91867 18.0227L7.08445 17.3905C7.09367 17.3549 7.07133 17.3258 7.03461 17.3255L6.8757 17.3246L6.7168 17.3236C6.6857 17.3235 6.66789 17.3032 6.67164 17.2764L6.67586 17.2616ZM13.1009 16.6771C13.1009 16.6828 13.0997 16.6885 13.0976 16.6938C13.0954 16.6991 13.0922 16.704 13.0881 16.708C13.084 16.7121 13.0792 16.7153 13.0739 16.7175C13.0686 16.7197 13.0629 16.7209 13.0572 16.7209C13.0514 16.7209 13.0457 16.7198 13.0404 16.7176C13.0351 16.7154 13.0303 16.7122 13.0262 16.7081C13.0222 16.7041 13.0189 16.6993 13.0167 16.694C13.0145 16.6887 13.0134 16.683 13.0134 16.6772C13.0133 16.6656 13.0179 16.6545 13.0261 16.6463C13.0343 16.638 13.0454 16.6334 13.057 16.6334C13.0686 16.6334 13.0798 16.638 13.088 16.6461C13.0962 16.6543 13.1008 16.6655 13.1009 16.6771Z" fill="#7C7C7C"/>
</g>
<defs>
<clipPath id="clip0_852_67">
<rect width="20" height="20" fill="white"/>
</clipPath>
</defs>
</svg>
