<svg width="18" height="20" viewBox="0 0 18 20" fill="none" xmlns="http://www.w3.org/2000/svg">
<g clip-path="url(#clip0_852_39)">
<path d="M14.5154 3.39447H6.61591C4.69117 3.39447 3.13086 5.08639 3.13086 7.17347V15.7392C3.13086 17.8263 4.69117 19.5182 6.61591 19.5182H14.5154C16.4401 19.5182 18.0004 17.8263 18.0004 15.7392V7.17347C18.0004 5.08639 16.4401 3.39447 14.5154 3.39447Z" fill="#CCCCCC"/>
<mask id="mask0_852_39" style="mask-type:luminance" maskUnits="userSpaceOnUse" x="5" y="5" width="11" height="13">
<path d="M5.33789 5.78784H15.7931V17.1248H5.33789V5.78784Z" fill="white"/>
</mask>
<g mask="url(#mask0_852_39)">
<path fill-rule="evenodd" clip-rule="evenodd" d="M14.9685 14.6187C14.3999 14.6016 13.9587 14.6647 13.589 14.8334C13.4826 14.8798 13.3117 14.8798 13.2977 15.0251C13.3546 15.086 13.3615 15.1858 13.4114 15.2703C13.4966 15.4237 13.6461 15.6303 13.7811 15.7375L14.2361 16.0901C14.5134 16.2738 14.8262 16.3812 15.0964 16.5651C15.2529 16.6724 15.4092 16.8103 15.5657 16.9254C15.6454 16.9867 15.6937 17.0865 15.7933 17.1246V17.1014C15.7436 17.0327 15.7292 16.9332 15.6797 16.8562L15.4661 16.6341C15.2601 16.3353 15.0039 16.0746 14.7266 15.8602C14.499 15.6916 14.0015 15.4618 13.909 15.1784L13.895 15.1612C14.0512 15.1441 14.2361 15.0845 14.3855 15.0385C14.6275 14.9698 14.8477 14.9849 15.0964 14.916L15.4379 14.8087V14.74C15.3099 14.6021 15.2175 14.4181 15.0825 14.288C14.7199 13.9508 14.3215 13.6212 13.909 13.3454C13.6886 13.1923 13.4042 13.0924 13.1695 12.9624C13.084 12.9164 12.942 12.8934 12.8923 12.8168C12.7639 12.6485 12.693 12.4261 12.6006 12.2267L12.0176 10.8935C11.8897 10.5946 11.8112 10.2958 11.6551 10.02C10.9226 8.71729 10.126 7.92818 8.90303 7.15411C8.64008 6.99319 8.32724 6.92397 7.99459 6.83982L7.46138 6.80896C7.34742 6.75536 7.23374 6.60968 7.13419 6.54065C6.72888 6.26479 5.68359 5.6672 5.38469 6.45481C5.19272 6.95282 5.66925 7.44314 5.83101 7.69615C5.95212 7.87237 6.1083 8.07153 6.19386 8.27081C6.24167 8.40099 6.25764 8.53905 6.30753 8.67699C6.42115 9.01407 6.52791 9.3897 6.67724 9.70399C6.75693 9.86491 6.84063 10.0337 6.94019 10.1792C6.99711 10.265 7.09672 10.3018 7.11792 10.4397C7.01831 10.5931 7.01146 10.8227 6.95453 11.0145C6.69844 11.8804 6.79805 12.9532 7.16062 13.5907C7.27458 13.7822 7.5431 14.2038 7.90746 14.0427C8.22745 13.9048 8.15606 13.4681 8.24848 13.0849C8.26997 12.993 8.25568 12.9317 8.2982 12.8702V12.8874L8.58984 13.5234C8.81027 13.8988 9.19438 14.2897 9.51419 14.5504C9.68473 14.6883 9.81989 14.926 10.0331 15.0101V14.987H10.0191C9.97637 14.9183 9.9123 14.8873 9.85544 14.8337C9.72748 14.6959 9.58529 14.5272 9.48567 14.374C9.18718 13.945 8.92423 13.4698 8.68945 12.9794C8.57555 12.7419 8.47593 12.4814 8.38381 12.2439C8.34077 12.1518 8.34077 12.0137 8.26985 11.9681C8.16303 12.1363 8.0069 12.2823 7.92832 12.4891C7.79315 12.8185 7.77916 13.2247 7.72944 13.6462C7.70074 13.6539 7.71346 13.6462 7.70074 13.6633C7.47346 13.6022 7.39505 13.349 7.30984 13.1347C7.09655 12.5906 7.06083 11.7171 7.24571 11.0887C7.29543 10.9278 7.50901 10.4221 7.42374 10.2688C7.38076 10.1232 7.23886 10.0391 7.16044 9.92399C7.06803 9.77837 6.96876 9.59459 6.9047 9.43367C6.73416 9.00431 6.64889 8.52942 6.46384 8.10031C6.37828 7.90103 6.22912 7.69407 6.10813 7.51034C5.97297 7.30338 5.82398 7.1577 5.71722 6.91263C5.68168 6.82679 5.63196 6.69043 5.68882 6.59835C5.70288 6.53706 5.73151 6.5125 5.78814 6.49877C5.8805 6.41286 6.14385 6.52176 6.23626 6.56742C6.49921 6.68249 6.71964 6.78969 6.94007 6.95042C7.03969 7.02701 7.14644 7.17269 7.2744 7.21117H7.42391C7.65149 7.26471 7.90729 7.22831 8.12034 7.29702C8.49731 7.42752 8.8385 7.61887 9.14448 7.82595C10.0759 8.46196 10.844 9.36615 11.3629 10.4468C11.4482 10.623 11.4837 10.7839 11.5621 10.9678C11.7116 11.3434 11.8965 11.7264 12.0455 12.0945C12.195 12.4546 12.3371 12.8227 12.5504 13.1215C12.6572 13.2824 13.0836 13.3665 13.2756 13.4509C13.4179 13.5196 13.6381 13.5814 13.7664 13.6656C14.008 13.8265 14.2498 14.0104 14.4772 14.1866C14.5908 14.2783 14.9466 14.47 14.9677 14.6229L14.9685 14.6187ZM7.71712 7.95992C7.61891 7.95898 7.52099 7.97186 7.42583 7.99821V8.01541H7.43983C7.49675 8.13804 7.59636 8.22237 7.6674 8.3297L7.83108 8.69752L7.84514 8.68039C7.9447 8.6038 7.99459 8.48117 7.99459 8.29745C7.9519 8.24385 7.94487 8.19006 7.90932 8.13646C7.86663 8.05987 7.77422 8.02139 7.71712 7.9603V7.95992Z" fill="white"/>
</g>
</g>
<defs>
<clipPath id="clip0_852_39">
<rect width="18" height="19.5182" fill="white"/>
</clipPath>
</defs>
</svg>
