<svg width="29" height="23" viewBox="0 0 29 23" fill="none" xmlns="http://www.w3.org/2000/svg">
<path d="M14.3323 20.3047C14.2372 20.3047 14.142 20.2777 14.0559 20.2328L13.1859 19.7207C13.0545 19.6488 13.118 19.6219 13.1633 19.6084C13.3355 19.55 13.3717 19.5365 13.5575 19.4287C13.5756 19.4197 13.6028 19.4242 13.6209 19.4332L14.2916 19.8285C14.3142 19.842 14.3505 19.842 14.3731 19.8285L16.9922 18.3281C17.0148 18.3146 17.033 18.2877 17.033 18.2562V15.2599C17.033 15.2285 17.0194 15.2016 16.9922 15.1881L14.3731 13.6922C14.3505 13.6787 14.3188 13.6787 14.2916 13.6922L11.6725 15.1881C11.6453 15.2016 11.6317 15.233 11.6317 15.2599V18.2562C11.6317 18.2832 11.6498 18.3101 11.6725 18.3236L12.3884 18.7324C12.7781 18.9256 13.0183 18.6965 13.0183 18.4719V15.5115C13.0183 15.4711 13.05 15.4351 13.0953 15.4351H13.4261C13.4669 15.4351 13.5031 15.4666 13.5031 15.5115V18.4719C13.5031 18.9885 13.2222 19.2805 12.7283 19.2805C12.5788 19.2805 12.4564 19.2805 12.1256 19.1187L11.4369 18.7279C11.2692 18.6291 11.1605 18.4494 11.1605 18.2562V15.2599C11.1605 15.0668 11.2647 14.8826 11.4369 14.7883L14.0559 13.2879C14.2236 13.1935 14.4411 13.1935 14.6042 13.2879L17.2233 14.7883C17.3909 14.8871 17.4997 15.0668 17.4997 15.2599V18.2562C17.4997 18.4494 17.3955 18.6336 17.2233 18.7279L14.6042 20.2283C14.5272 20.2777 14.432 20.3047 14.3323 20.3047ZM16.4484 17.3488C16.4484 16.7873 16.0678 16.639 15.2612 16.5312C14.4456 16.4234 14.3641 16.3695 14.3641 16.1808C14.3641 16.0236 14.432 15.817 15.0347 15.817C15.5739 15.817 15.7733 15.9338 15.8548 16.2932C15.8639 16.3291 15.8911 16.3516 15.9273 16.3516H16.2672C16.2898 16.3516 16.308 16.3426 16.3216 16.3291C16.3352 16.3111 16.3442 16.2932 16.3397 16.2707C16.2853 15.6508 15.873 15.3633 15.0347 15.3633C14.287 15.3633 13.843 15.6777 13.843 16.1988C13.843 16.7693 14.287 16.9221 15.003 16.9939C15.8594 17.0793 15.9273 17.2006 15.9273 17.3668C15.9273 17.6588 15.6917 17.7801 15.1389 17.7801C14.4456 17.7801 14.2916 17.6094 14.2417 17.268C14.2372 17.232 14.2055 17.2051 14.1647 17.2051H13.8248C13.7841 17.2051 13.7478 17.2365 13.7478 17.2814C13.7478 17.7172 13.988 18.2383 15.1344 18.2383C15.9727 18.2383 16.4484 17.9148 16.4484 17.3488ZM18.918 15.0982C18.918 15.3723 18.6914 15.5969 18.415 15.5969C18.1386 15.5969 17.912 15.3723 17.912 15.0982C17.912 14.8152 18.1477 14.5996 18.415 14.5996C18.6869 14.5951 18.918 14.8152 18.918 15.0982ZM18.8364 15.0982C18.8364 14.8646 18.6461 14.6805 18.4105 14.6805C18.1794 14.6805 17.9891 14.8646 17.9891 15.0982C17.9891 15.3318 18.1794 15.5205 18.4105 15.5205C18.6461 15.516 18.8364 15.3273 18.8364 15.0982ZM18.6325 15.3767H18.5147C18.5102 15.3498 18.492 15.206 18.492 15.2015C18.483 15.1701 18.4739 15.1521 18.4331 15.1521H18.3334V15.3767H18.2247V14.8152H18.4195C18.4875 14.8152 18.6189 14.8152 18.6189 14.9635C18.6189 15.0668 18.5509 15.0892 18.5102 15.1027C18.5872 15.1072 18.5917 15.1566 18.6053 15.2285C18.6098 15.2734 18.6189 15.3498 18.6325 15.3767ZM18.5056 14.9814C18.5056 14.9051 18.4513 14.9051 18.4241 14.9051H18.3334V15.0623H18.4195C18.492 15.0623 18.5056 15.0129 18.5056 14.9814ZM6.22141 8.58007C6.22141 8.45878 6.15797 8.35096 6.05375 8.29257L3.27609 6.70682C3.23078 6.67987 3.17641 6.66639 3.12203 6.6619H3.09484C3.04047 6.6619 2.99063 6.67987 2.94078 6.70682L0.167656 8.29257C0.0634375 8.35096 0 8.46327 0 8.58007L0.00453125 12.8476C0.00453125 12.906 0.03625 12.9599 0.0860938 12.9914C0.135938 13.0228 0.199375 13.0228 0.25375 12.9914L1.90313 12.0525C2.00734 11.9896 2.07078 11.8818 2.07078 11.765V9.7705C2.07078 9.6537 2.13422 9.54139 2.23844 9.483L2.94078 9.08319C2.99516 9.05175 3.04953 9.03827 3.10844 9.03827C3.16734 9.03827 3.22625 9.05175 3.27609 9.08319L3.97844 9.483C4.08266 9.54139 4.14609 9.6537 4.14609 9.7705V11.765C4.14609 11.8818 4.20953 11.9941 4.31375 12.0525L5.96313 12.9914C6.01297 13.0228 6.08094 13.0228 6.13078 12.9914C6.18063 12.9644 6.21234 12.906 6.21234 12.8476L6.22141 8.58007ZM21.4102 3.92167V11.8459C21.4102 11.9627 21.3467 12.075 21.2425 12.1334L18.4648 13.7236C18.3606 13.782 18.2338 13.782 18.1295 13.7236L15.3519 12.1334C15.2477 12.075 15.1842 11.9627 15.1842 11.8459V8.66542C15.1842 8.54862 15.2477 8.43632 15.3519 8.37792L18.1295 6.78768C18.2338 6.72929 18.3606 6.72929 18.4648 6.78768L19.1581 7.183C19.2352 7.22792 19.3348 7.16952 19.3348 7.08417V2.86151C19.3348 2.73573 19.4708 2.65487 19.5841 2.71776L21.238 3.63417C21.3422 3.68807 21.4102 3.80038 21.4102 3.92167ZM19.3258 9.7121C19.3258 9.68065 19.3077 9.6537 19.285 9.64022L18.3334 9.09218C18.3063 9.0787 18.2745 9.0787 18.2473 9.09218L17.2958 9.64022C17.2686 9.6537 17.255 9.68065 17.255 9.7121V10.8037C17.255 10.8351 17.2731 10.8621 17.2958 10.8756L18.2473 11.4191C18.2745 11.4326 18.3063 11.4326 18.3289 11.4191L19.2805 10.8756C19.3077 10.8621 19.3213 10.8351 19.3213 10.8037V9.7121H19.3258ZM28.8323 9.68065C28.9366 9.62225 29 9.50995 29 9.39315V8.62499C29 8.50819 28.9366 8.39589 28.8323 8.33749L26.0728 6.74725C25.9686 6.68885 25.8417 6.68885 25.7375 6.74725L22.9598 8.33749C22.8556 8.39589 22.7922 8.50819 22.7922 8.62499V11.8055C22.7922 11.9267 22.8556 12.0346 22.9598 12.093L25.7194 13.6517C25.8191 13.7101 25.9459 13.7101 26.0502 13.6517L27.7177 12.7308C27.8309 12.668 27.8309 12.5062 27.7177 12.4433L24.9219 10.8531C24.8675 10.8217 24.8358 10.7678 24.8358 10.7094V9.7121C24.8358 9.6537 24.8675 9.59979 24.9219 9.56835L25.7919 9.06971C25.8417 9.03827 25.9097 9.03827 25.9595 9.06971L26.8295 9.56835C26.8794 9.59979 26.9156 9.6537 26.9156 9.7121V10.4937C26.9156 10.6195 27.0561 10.7004 27.1694 10.6375L28.8323 9.68065ZM25.3297 9.83788C25.3116 9.85136 25.298 9.86932 25.298 9.89178V10.5027C25.298 10.5252 25.3116 10.5476 25.3297 10.5566L25.8644 10.8621C25.8825 10.8756 25.9097 10.8756 25.9278 10.8621L26.4625 10.5566C26.4806 10.5432 26.4942 10.5252 26.4942 10.5027V9.89178C26.4942 9.86932 26.4806 9.84686 26.4625 9.83788L25.9278 9.53241C25.9097 9.51893 25.8825 9.51893 25.8644 9.53241L25.3297 9.83788ZM13.8112 11.792V8.62948C13.8112 8.51268 13.7388 8.40038 13.6345 8.34198L10.8659 6.76073C10.7708 6.70682 10.6394 6.69784 10.5306 6.76073L7.76203 8.34198C7.65781 8.40038 7.58531 8.50819 7.58531 8.62948V11.792C7.58531 11.9178 7.67141 12.0256 7.76656 12.0795L10.5397 13.6607C10.6484 13.7236 10.7753 13.7191 10.875 13.6607L13.6391 12.0795C13.7206 12.0346 13.7795 11.9582 13.8022 11.8683C13.8067 11.8459 13.8112 11.8189 13.8112 11.792ZM10.4445 6.18124L10.4083 6.2037H10.4581L10.4445 6.18124ZM13.8973 12.0301L13.8792 11.9986V12.0391L13.8973 12.0301Z" fill="#CCCCCC"/>
</svg>
