<svg width="16" height="14" viewBox="0 0 16 14" fill="none" xmlns="http://www.w3.org/2000/svg">
<g clip-path="url(#clip0_852_37)">
<path d="M13.1552 4.53304C12.9849 4.47565 12.8132 4.42247 12.6402 4.37358C12.6692 4.25691 12.696 4.14166 12.7198 4.02843C13.1096 2.16907 12.8547 0.67113 11.9842 0.177937C11.1495 -0.29487 9.78444 0.198138 8.40581 1.3769C8.26994 1.49328 8.13709 1.61302 8.00737 1.73599C7.92054 1.65422 7.83217 1.57403 7.74231 1.49547C6.29744 0.235103 4.84919 -0.296098 3.97956 0.198507C3.14563 0.672788 2.89869 2.08095 3.24969 3.84311C3.28461 4.01764 3.32404 4.19126 3.36794 4.36381C3.16294 4.42104 2.96512 4.48195 2.77581 4.5468C1.08181 5.12706 0 6.03638 0 6.9796C0 7.95377 1.16138 8.93088 2.92575 9.52337C3.06879 9.5712 3.21302 9.61553 3.35831 9.65631C3.31113 9.84215 3.26924 10.0293 3.23269 10.2174C2.89806 11.949 3.15937 13.3239 3.99106 13.7951C4.85006 14.2818 6.29181 13.7816 7.69562 12.576C7.80946 12.478 7.92079 12.3772 8.0295 12.2737C8.16997 12.4068 8.31419 12.5361 8.462 12.6614C9.82187 13.811 11.1649 14.2752 11.9958 13.8026C12.8539 13.3145 13.1329 11.8375 12.7708 10.0406C12.7422 9.89979 12.7102 9.75971 12.6748 9.62045C12.7761 9.59097 12.8754 9.56064 12.9723 9.52908C14.8066 8.93205 16 7.96679 16 6.9796C16 6.03295 14.8833 5.11748 13.1552 4.53304ZM12.7574 8.89171C12.6699 8.92014 12.5801 8.94759 12.4886 8.9743C12.2861 8.34448 12.0129 7.67481 11.6784 6.98286C11.9976 6.30742 12.2603 5.64629 12.4571 5.02059C12.6208 5.06713 12.7796 5.11619 12.9327 5.16795C14.4134 5.66876 15.3165 6.4091 15.3165 6.9796C15.3165 7.58725 14.3411 8.3761 12.7574 8.89171ZM12.1003 10.171C12.2604 10.9656 12.2832 11.684 12.1771 12.2456C12.0819 12.7503 11.8903 13.0867 11.6532 13.2215C11.1491 13.5083 10.0707 13.1356 8.90781 12.1524C8.77033 12.0359 8.63618 11.9157 8.5055 11.7919C8.95638 11.3075 9.40694 10.7444 9.84669 10.1189C10.6202 10.0515 11.3509 9.94122 12.0136 9.79072C12.0455 9.91679 12.0744 10.0436 12.1003 10.171ZM5.45475 13.172C4.96212 13.3428 4.56975 13.3478 4.33256 13.2134C3.82787 12.9275 3.61806 11.8235 3.90425 10.3427C3.93827 10.1677 3.97722 9.99367 4.02106 9.82081C4.67644 9.96326 5.40188 10.0657 6.17719 10.1275C6.61994 10.7395 7.0835 11.302 7.55069 11.7946C7.4514 11.8889 7.34977 11.9809 7.24587 12.0704C6.62506 12.6035 6.003 12.9817 5.45475 13.172ZM3.14687 8.88796C2.36669 8.62595 1.72238 8.28547 1.28075 7.91392C0.883875 7.58007 0.683563 7.24855 0.683563 6.9796C0.683563 6.4072 1.55212 5.67711 3.00081 5.18091C3.17663 5.12073 3.36063 5.06394 3.55156 5.01064C3.75181 5.65046 4.01444 6.31945 4.33138 6.99594C4.01031 7.68243 3.74394 8.3621 3.54175 9.00948C3.40913 8.97216 3.27747 8.93164 3.14687 8.88796ZM3.9205 3.7141C3.61981 2.20438 3.8195 1.06552 4.32206 0.779691C4.85731 0.475252 6.04094 0.909314 7.2885 1.99763C7.36985 2.06876 7.44989 2.14133 7.52856 2.21531C7.06369 2.70573 6.60437 3.26408 6.16556 3.87246C5.41306 3.94099 4.69275 4.05102 4.0305 4.19845C3.9897 4.03796 3.95302 3.87642 3.9205 3.7141ZM10.8222 5.38845C10.6658 5.123 10.5035 4.86089 10.3356 4.60231C10.8461 4.66574 11.3352 4.74992 11.7946 4.85283C11.6567 5.28708 11.4848 5.74103 11.2825 6.20647C11.1346 5.93082 10.9812 5.65809 10.8222 5.38845ZM8.00769 2.69524C8.32294 3.03081 8.63869 3.40543 8.94925 3.81192C8.31925 3.78269 7.6882 3.78256 7.05819 3.81155C7.36906 3.40881 7.6875 3.03467 8.00769 2.69524ZM5.17513 5.39306C5.01815 5.66052 4.86754 5.93155 4.72344 6.20592C4.52444 5.74214 4.35413 5.28609 4.21506 4.84571C4.67156 4.74538 5.15838 4.66334 5.66563 4.60108C5.49584 4.86124 5.33229 5.12535 5.17513 5.39306ZM5.68019 9.4059C5.15613 9.34843 4.662 9.27063 4.20563 9.173C4.34688 8.72475 4.52094 8.25901 4.72425 7.78528C4.86893 8.05985 5.02016 8.33104 5.17781 8.59863C5.33994 8.87372 5.50781 9.14316 5.68019 9.4059ZM8.02656 11.3113C7.70256 10.9679 7.37944 10.588 7.06388 10.1794C7.37025 10.1912 7.68256 10.1972 8 10.1972C8.32613 10.1972 8.6485 10.19 8.96581 10.1761C8.65425 10.5921 8.33969 10.9726 8.02656 11.3113ZM11.2889 7.76109C11.5028 8.24003 11.6831 8.70332 11.8262 9.14389C11.3623 9.24791 10.8614 9.33167 10.3337 9.39387C10.5028 9.13048 10.6666 8.86381 10.8249 8.59403C10.9858 8.3198 11.1406 8.04208 11.2889 7.76109ZM10.2328 8.25852C9.99045 8.67215 9.73446 9.07794 9.46525 9.47523C8.9776 9.50916 8.48887 9.52601 8 9.52576C7.50206 9.52576 7.01775 9.51053 6.55137 9.48081C6.27514 9.08444 6.01427 8.67795 5.76931 8.2622C5.52551 7.84865 5.29785 7.42616 5.08669 6.99563C5.29731 6.565 5.52435 6.14231 5.76731 5.72845L5.76725 5.72851C6.01012 5.31454 6.26892 4.90978 6.54306 4.51511C7.01888 4.47974 7.50681 4.46132 7.99994 4.46132C8.49531 4.46132 8.98394 4.47993 9.45963 4.51554C9.731 4.90962 9.98814 5.31299 10.2306 5.72488C10.4743 6.13783 10.7044 6.55847 10.9203 6.98611C10.7066 7.41813 10.4773 7.84253 10.2328 8.25852ZM11.6428 0.759673C12.1786 1.06325 12.3869 2.28745 12.0503 3.89285C12.0288 3.99527 12.0047 4.09959 11.9784 4.20539C11.3146 4.05483 10.5938 3.94289 9.83906 3.87332C9.39944 3.25824 8.94388 2.69904 8.48656 2.21494C8.60641 2.10143 8.72912 1.99087 8.85456 1.88336C10.0358 0.873454 11.1398 0.4747 11.6428 0.759673ZM8 5.57592C8.78906 5.57592 9.42875 6.20438 9.42875 6.9796C9.42875 7.75482 8.78906 8.38329 8 8.38329C7.21094 8.38329 6.57125 7.75482 6.57125 6.9796C6.57125 6.20438 7.21094 5.57592 8 5.57592Z" fill="#CCCCCC"/>
</g>
<defs>
<clipPath id="clip0_852_37">
<rect width="16" height="14" fill="white"/>
</clipPath>
</defs>
</svg>
